<svg width="88" height="32" viewBox="0 0 88 32" fill="none" xmlns="http://www.w3.org/2000/svg">
<g clip-path="url(#clip0_1_4)">
<path d="M7.78562 22.2208H17.7828V15.9577H7.78562V13.6882H14.8642C13.6041 12.6719 12.7561 11.5479 12.2514 10.241C11.8874 9.2811 11.7129 8.25785 11.7378 7.22953H0.424383V31.2616H18.2287V24.7649H7.78562V22.2208Z" fill="#88E53E"/>
<path d="M34.3688 18.8914L26.9398 7.22953H24.6944C24.667 8.01582 24.5393 8.79521 24.3145 9.54815C23.6734 11.6766 22.2636 13.4426 20.2813 14.6436V31.2616H27.1609V18.7782L35.4023 31.2616H41.252V7.22953H34.3724L34.3688 18.8914Z" fill="#88E53E"/>
<path d="M66.2714 7.22953H57.6244L51.2663 16.1535V7.22953H43.6982V31.2616H51.2663V25.0385L52.9998 22.651L57.8946 31.2616H66.6183L58.7185 17.5627L66.2714 7.22953Z" fill="#88E53E"/>
<path d="M76.051 6.83837C68.96 6.83837 64.1428 12.0444 64.1428 19.2466C64.1428 26.4098 68.9581 31.6547 76.051 31.6547C83.1438 31.6547 88.0001 26.4107 88.0001 19.2466C87.9965 12.0444 83.1411 6.83837 76.051 6.83837ZM76.051 24.9227C73.4828 24.9227 71.7456 22.7752 71.7456 19.2457C71.7456 15.7161 73.4828 13.5687 76.051 13.5687C78.6191 13.5687 80.3945 15.7171 80.3945 19.2457C80.3945 22.7743 78.6191 24.9227 76.051 24.9227Z" fill="#88E53E"/>
<path d="M17.5954 4.60032C19.8025 6.59831 20.8734 11.0489 18.1724 13.6918C23.019 11.664 24.6134 6.38368 20.778 0.51832C19.2157 1.96835 18.1403 3.33234 17.5954 4.60032Z" fill="#88E53E"/>
<path d="M17.939 13.5574C19.52 9.60938 18.5525 5.30727 14.3097 3.43426C12.3978 8.76888 14.0849 11.4516 17.939 13.5574Z" fill="#88E53E"/>
</g>
<defs>
<clipPath id="clip0_1_4">
<rect width="88" height="32" fill="white"/>
</clipPath>
</defs>
</svg>
