<svg width="33" height="33" viewBox="0 0 33 33" fill="none" xmlns="http://www.w3.org/2000/svg">
<path d="M28.4335 23.7972C28.4335 24.2292 28.3373 24.6732 28.133 25.1052C27.9287 25.5372 27.6643 25.9452 27.3158 26.3292C26.7269 26.9772 26.0779 27.4452 25.3448 27.7452C24.6238 28.0452 23.8426 28.2012 23.0013 28.2012C21.7755 28.2012 20.4655 27.9132 19.0834 27.3252C17.7014 26.7372 16.3193 25.9452 14.9492 24.9492C13.5672 23.9412 12.2572 22.8252 11.0073 21.5892C9.76948 20.3412 8.6518 19.0332 7.6543 17.6652C6.66882 16.2972 5.87563 14.9292 5.29877 13.5732C4.7219 12.2052 4.43347 10.8972 4.43347 9.64917C4.43347 8.83317 4.57769 8.05317 4.86612 7.33317C5.15455 6.60117 5.61124 5.92917 6.24819 5.32917C7.01735 4.57317 7.85861 4.20117 8.74794 4.20117C9.08445 4.20117 9.42095 4.27317 9.7214 4.41717C10.0339 4.56117 10.3103 4.77717 10.5266 5.08917L13.3148 9.01317C13.5311 9.31317 13.6874 9.58917 13.7955 9.85317C13.9037 10.1052 13.9638 10.3572 13.9638 10.5852C13.9638 10.8732 13.8796 11.1612 13.7114 11.4372C13.5552 11.7132 13.3268 12.0012 13.0384 12.2892L12.125 13.2372C11.9928 13.3692 11.9327 13.5252 11.9327 13.7172C11.9327 13.8132 11.9447 13.8972 11.9688 13.9932C12.0048 14.0892 12.0409 14.1612 12.0649 14.2332C12.2812 14.6292 12.6538 15.1452 13.1826 15.7692C13.7234 16.3932 14.3003 17.0292 14.9252 17.6652C15.5742 18.3012 16.1991 18.8892 16.8361 19.4292C17.461 19.9572 17.9778 20.3172 18.3864 20.5332C18.4465 20.5572 18.5186 20.5932 18.6027 20.6292C18.6989 20.6652 18.795 20.6772 18.9032 20.6772C19.1075 20.6772 19.2637 20.6052 19.3959 20.4732L20.3093 19.5732C20.6097 19.2732 20.8982 19.0452 21.1746 18.9012C21.451 18.7332 21.7274 18.6492 22.0279 18.6492C22.2562 18.6492 22.4966 18.6972 22.761 18.8052C23.0254 18.9132 23.3018 19.0692 23.6022 19.2732L27.5802 22.0932C27.8927 22.3092 28.109 22.5612 28.2412 22.8612C28.3614 23.1612 28.4335 23.4612 28.4335 23.7972Z" stroke="#009785" stroke-width="2" stroke-miterlimit="10"/>
</svg>
