<svg width="33" height="33" viewBox="0 0 33 33" fill="none" xmlns="http://www.w3.org/2000/svg">
<path d="M11.6003 4.20101H12.9337C10.3337 11.9877 10.3337 20.4143 12.9337 28.201H11.6003M20.9337 4.20101C23.5337 11.9877 23.5337 20.4143 20.9337 28.201M4.93368 21.5343V20.201C12.7203 22.801 21.147 22.801 28.9337 20.201V21.5343M4.93368 12.201C12.7203 9.60101 21.147 9.60101 28.9337 12.201M30.267 16.201C30.267 23.5648 24.2975 29.5343 16.9337 29.5343C9.56988 29.5343 3.60034 23.5648 3.60034 16.201C3.60034 8.83721 9.56988 2.86768 16.9337 2.86768C24.2975 2.86768 30.267 8.83721 30.267 16.201Z" stroke="#009785" stroke-width="2" stroke-linecap="round" stroke-linejoin="round"/>
</svg>
