<svg width="40" height="31" viewBox="0 0 40 31" fill="none" xmlns="http://www.w3.org/2000/svg">
<g filter="url(#filter0_d_31489_2)">
<path d="M33.5312 4.375H6.1875C4.98438 4.375 4 3.39062 4 2.1875C4 0.984375 4.98438 0 6.1875 0H33.5312C34.7344 0 35.7188 0.984375 35.7188 2.1875C35.7188 3.39062 34.7344 4.375 33.5312 4.375Z" fill="white"/>
<path d="M33.5312 22.9906H6.1875C4.98438 22.9906 4 22.0063 4 20.8031C4 19.6 4.98438 18.6156 6.1875 18.6156H33.5312C34.7344 18.6156 35.7188 19.6 35.7188 20.8031C35.7188 22.0063 34.7344 22.9906 33.5312 22.9906Z" fill="white"/>
<path d="M33.5312 13.6828H6.1875C4.98438 13.6828 4 12.6984 4 11.4953C4 10.2922 4.98438 9.30782 6.1875 9.30782H33.5312C34.7344 9.30782 35.7188 10.2922 35.7188 11.4953C35.7188 12.6984 34.7344 13.6828 33.5312 13.6828Z" fill="white"/>
</g>
<defs>
<filter id="filter0_d_31489_2" x="0" y="0" width="39.7188" height="30.9906" filterUnits="userSpaceOnUse" color-interpolation-filters="sRGB">
<feFlood flood-opacity="0" result="BackgroundImageFix"/>
<feColorMatrix in="SourceAlpha" type="matrix" values="0 0 0 0 0 0 0 0 0 0 0 0 0 0 0 0 0 0 127 0" result="hardAlpha"/>
<feOffset dy="4"/>
<feGaussianBlur stdDeviation="2"/>
<feComposite in2="hardAlpha" operator="out"/>
<feColorMatrix type="matrix" values="0 0 0 0 0 0 0 0 0 0 0 0 0 0 0 0 0 0 0.25 0"/>
<feBlend mode="normal" in2="BackgroundImageFix" result="effect1_dropShadow_31489_2"/>
<feBlend mode="normal" in="SourceGraphic" in2="effect1_dropShadow_31489_2" result="shape"/>
</filter>
</defs>
</svg>
